<svg width="24" height="24" viewBox="0 0 24 24" fill="none" xmlns="http://www.w3.org/2000/svg">
<g id="album">
<path id="Vector" d="M6.62072 1.24139H17.3793C17.5988 1.24139 17.8093 1.32859 17.9645 1.48379C18.1197 1.63899 18.2069 1.84949 18.2069 2.06898C18.2069 2.28847 18.1197 2.49897 17.9645 2.65417C17.8093 2.80937 17.5988 2.89657 17.3793 2.89657H6.62072C6.40123 2.89657 6.19073 2.80937 6.03553 2.65417C5.88033 2.49897 5.79313 2.28847 5.79313 2.06898C5.79313 1.84949 5.88033 1.63899 6.03553 1.48379C6.19073 1.32859 6.40123 1.24139 6.62072 1.24139ZM5.79313 3.72415H18.2069C18.4264 3.72415 18.6369 3.81134 18.7921 3.96655C18.9473 4.12175 19.0345 4.33225 19.0345 4.55174C19.0345 4.77123 18.9473 4.98173 18.7921 5.13693C18.6369 5.29213 18.4264 5.37933 18.2069 5.37933H5.79313C5.57364 5.37933 5.36314 5.29213 5.20794 5.13693C5.05274 4.98173 4.96555 4.77123 4.96555 4.55174C4.96555 4.33225 5.05274 4.12175 5.20794 3.96655C5.36314 3.81134 5.57364 3.72415 5.79313 3.72415ZM4.96555 6.20691H19.0345C19.254 6.20691 19.4645 6.2941 19.6197 6.44931C19.7749 6.60451 19.8621 6.81501 19.8621 7.0345C19.8621 7.25399 19.7749 7.46449 19.6197 7.61969C19.4645 7.77489 19.254 7.86208 19.0345 7.86208H4.96555C4.74606 7.86208 4.53556 7.77489 4.38036 7.61969C4.22515 7.46449 4.13796 7.25399 4.13796 7.0345C4.13796 6.81501 4.22515 6.60451 4.38036 6.44931C4.53556 6.2941 4.74606 6.20691 4.96555 6.20691ZM19.8621 23.5862H4.13796C3.22513 23.5862 2.48279 22.8439 2.48279 21.931V10.3448C2.48279 9.43202 3.22513 8.68967 4.13796 8.68967H19.8621C20.7749 8.68967 21.5173 9.43202 21.5173 10.3448V21.931C21.5173 22.8439 20.7749 23.5862 19.8621 23.5862ZM4.13796 10.3448V21.931H19.8621V10.3448H4.13796Z" fill="white"/>
<path id="Vector_2" d="M9.19692 21.2905H8.70947C8.08381 21.2905 7.50616 21.0298 7.12464 20.5746C6.73816 20.1137 6.58009 19.488 6.69181 18.8582C6.90368 17.6557 8.01678 16.7139 9.22588 16.7139H10.1106V12.9815C10.1106 12.1283 10.7503 11.4207 11.5994 11.3346L14.7657 11.0152C14.9959 10.9919 15.2284 11.0172 15.4482 11.0893C15.668 11.1614 15.8702 11.2788 16.0418 11.4339C16.2135 11.589 16.3507 11.7784 16.4446 11.9898C16.5386 12.2012 16.5872 12.4299 16.5873 12.6613V13.92C16.5886 14.3307 16.4366 14.7271 16.1611 15.0317C15.8856 15.3363 15.5064 15.5271 15.0976 15.5669L11.7657 15.9037V18.7589C11.7657 18.8168 11.76 18.8731 11.7484 18.9269C11.7434 19.0709 11.7376 19.104 11.731 19.1454C11.5183 20.3487 10.4052 21.2905 9.19692 21.2905ZM9.22506 18.3691C8.81623 18.3691 8.39416 18.7316 8.3205 19.1462C8.29485 19.2952 8.31968 19.4251 8.3925 19.5112C8.47857 19.6146 8.61264 19.6353 8.70947 19.6353H9.19692C9.60492 19.6353 10.027 19.2728 10.1006 18.8582L10.104 18.3691H9.22506ZM14.9321 12.6613L11.7657 12.9815V14.2395L14.9321 13.9192V12.6613Z" fill="white"/>
</g>
</svg>
