<svg width="24" height="24" viewBox="0 0 24 24" fill="none" xmlns="http://www.w3.org/2000/svg">
<g id="feeds">
<path id="Vector" d="M8.99983 9L19.4998 6M19.4998 12.553V16.303C19.4997 16.7919 19.3404 17.2674 19.0459 17.6577C18.7515 18.048 18.3379 18.3317 17.8678 18.466L16.5478 18.843C16.319 18.9122 16.0786 18.9351 15.8408 18.9105C15.603 18.8859 15.3724 18.8143 15.1625 18.6997C14.9527 18.5852 14.7677 18.43 14.6183 18.2433C14.469 18.0566 14.3582 17.842 14.2926 17.6121C14.2269 17.3822 14.2077 17.1416 14.2359 16.9041C14.2641 16.6667 14.3393 16.4373 14.4571 16.2292C14.5748 16.0211 14.7328 15.8385 14.9217 15.692C15.1107 15.5455 15.3269 15.4381 15.5578 15.376L17.8678 14.716C18.3379 14.5817 18.7515 14.298 19.0459 13.9077C19.3404 13.5174 19.4997 13.0419 19.4998 12.553ZM19.4998 12.553V2.25L8.99983 5.25V15.553M8.99983 15.553V19.303C8.99973 19.7919 8.8404 20.2674 8.54594 20.6577C8.25148 21.048 7.83792 21.3317 7.36783 21.466L6.04783 21.843C5.59068 21.966 5.1035 21.9043 4.69148 21.6711C4.27946 21.438 3.97565 21.0522 3.84567 20.597C3.71568 20.1418 3.76995 19.6537 3.99674 19.2382C4.22354 18.8226 4.60466 18.5129 5.05783 18.376L7.36783 17.716C7.83792 17.5817 8.25148 17.298 8.54594 16.9077C8.8404 16.5174 8.99973 16.0419 8.99983 15.553Z" stroke="white" stroke-width="1.5" stroke-linecap="round" stroke-linejoin="round"/>
</g>
</svg>
