<svg width="24" height="24" viewBox="0 0 24 24" fill="none" xmlns="http://www.w3.org/2000/svg">
<g id="home">
<path id="Vector" d="M11.47 3.84001C11.6106 3.69956 11.8012 3.62067 12 3.62067C12.1987 3.62067 12.3893 3.69956 12.53 3.84001L21.22 12.53C21.2886 12.6037 21.3714 12.6628 21.4634 12.7038C21.5554 12.7448 21.6547 12.7668 21.7554 12.7686C21.8561 12.7704 21.9562 12.7519 22.0496 12.7141C22.1429 12.6764 22.2278 12.6203 22.299 12.549C22.3702 12.4778 22.4264 12.393 22.4641 12.2996C22.5018 12.2062 22.5203 12.1062 22.5185 12.0055C22.5168 11.9048 22.4947 11.8055 22.4537 11.7135C22.4127 11.6215 22.3536 11.5387 22.28 11.47L13.591 2.78001C13.382 2.57107 13.134 2.40534 12.861 2.29226C12.588 2.17919 12.2954 2.12099 12 2.12099C11.7045 2.12099 11.4119 2.17919 11.1389 2.29226C10.8659 2.40534 10.6179 2.57107 10.409 2.78001L1.71896 11.47C1.58241 11.6115 1.5069 11.801 1.5087 11.9977C1.5105 12.1943 1.58946 12.3824 1.72859 12.5214C1.86771 12.6604 2.05586 12.7391 2.25251 12.7408C2.44916 12.7424 2.63857 12.6667 2.77996 12.53L11.47 3.84001Z" fill="white"/>
<path id="Vector_2" d="M12 5.43199L20.159 13.591C20.189 13.621 20.219 13.649 20.25 13.677V19.875C20.25 20.91 19.41 21.75 18.375 21.75H15C14.8011 21.75 14.6103 21.671 14.4697 21.5303C14.329 21.3897 14.25 21.1989 14.25 21V16.5C14.25 16.3011 14.171 16.1103 14.0303 15.9697C13.8897 15.829 13.6989 15.75 13.5 15.75H10.5C10.3011 15.75 10.1103 15.829 9.96967 15.9697C9.82902 16.1103 9.75 16.3011 9.75 16.5V21C9.75 21.1989 9.67098 21.3897 9.53033 21.5303C9.38968 21.671 9.19891 21.75 9 21.75H5.625C5.12772 21.75 4.65081 21.5524 4.29917 21.2008C3.94754 20.8492 3.75 20.3723 3.75 19.875V13.677C3.78111 13.6492 3.81146 13.6205 3.841 13.591L12 5.42999V5.43199Z" fill="white"/>
</g>
</svg>
