<svg width="24" height="24" viewBox="0 0 24 24" fill="none" xmlns="http://www.w3.org/2000/svg">
<g id="setting">
<path id="Vector" fill-rule="evenodd" clip-rule="evenodd" d="M11.0781 2.25C10.1611 2.25 9.37906 2.913 9.22806 3.817L9.05006 4.889C9.03006 5.009 8.93506 5.149 8.75306 5.237C8.41041 5.40171 8.08079 5.59226 7.76706 5.807C7.60106 5.922 7.43306 5.933 7.31706 5.89L6.30006 5.508C5.8843 5.35224 5.42675 5.34906 5.00887 5.49904C4.59099 5.64901 4.23989 5.94241 4.01806 6.327L3.09606 7.924C2.87415 8.30836 2.79577 8.75897 2.87487 9.19569C2.95398 9.6324 3.18543 10.0269 3.52806 10.309L4.36806 11.001C4.46306 11.079 4.53806 11.23 4.52206 11.431C4.49356 11.8101 4.49356 12.1909 4.52206 12.57C4.53706 12.77 4.46306 12.922 4.36906 13L3.52806 13.692C3.18543 13.9741 2.95398 14.3686 2.87487 14.8053C2.79577 15.242 2.87415 15.6926 3.09606 16.077L4.01806 17.674C4.24004 18.0584 4.59121 18.3516 5.00908 18.5014C5.42695 18.6512 5.88441 18.6478 6.30006 18.492L7.31906 18.11C7.43406 18.067 7.60206 18.079 7.76906 18.192C8.08106 18.406 8.41006 18.597 8.75406 18.762C8.93606 18.85 9.03106 18.99 9.05106 19.112L9.22906 20.183C9.38006 21.087 10.1621 21.75 11.0791 21.75H12.9231C13.8391 21.75 14.6221 21.087 14.7731 20.183L14.9511 19.111C14.9711 18.991 15.0651 18.851 15.2481 18.762C15.5921 18.597 15.9211 18.406 16.2331 18.192C16.4001 18.078 16.5681 18.067 16.6831 18.11L17.7031 18.492C18.1186 18.6472 18.5756 18.6501 18.9931 18.5002C19.4105 18.3502 19.7613 18.0571 19.9831 17.673L20.9061 16.076C21.128 15.6916 21.2063 15.241 21.1272 14.8043C21.0481 14.3676 20.8167 13.9731 20.4741 13.691L19.6341 12.999C19.5391 12.921 19.4641 12.77 19.4801 12.569C19.5085 12.1899 19.5085 11.8091 19.4801 11.43C19.4641 11.23 19.5391 11.078 19.6331 11L20.4731 10.308C21.1811 9.726 21.3641 8.718 20.9061 7.923L19.9841 6.326C19.7621 5.94159 19.4109 5.6484 18.993 5.49861C18.5752 5.34883 18.1177 5.35215 17.7021 5.508L16.6821 5.89C16.5681 5.933 16.4001 5.921 16.2331 5.807C15.9197 5.5923 15.5904 5.40175 15.2481 5.237C15.0651 5.15 14.9711 5.01 14.9511 4.889L14.7721 3.817C14.6991 3.37906 14.4732 2.98122 14.1344 2.69427C13.7956 2.40732 13.366 2.24989 12.9221 2.25H11.0791H11.0781ZM12.0001 15.75C12.9946 15.75 13.9484 15.3549 14.6517 14.6517C15.355 13.9484 15.7501 12.9946 15.7501 12C15.7501 11.0054 15.355 10.0516 14.6517 9.34835C13.9484 8.64509 12.9946 8.25 12.0001 8.25C11.0055 8.25 10.0517 8.64509 9.34841 9.34835C8.64514 10.0516 8.25006 11.0054 8.25006 12C8.25006 12.9946 8.64514 13.9484 9.34841 14.6517C10.0517 15.3549 11.0055 15.75 12.0001 15.75Z" fill="white"/>
</g>
</svg>
