<svg width="1280" height="714" viewBox="0 0 1280 714" fill="none" xmlns="http://www.w3.org/2000/svg">
<g clip-path="url(#clip0_261_47)">
<path fill-rule="evenodd" clip-rule="evenodd" d="M129.357 690.656C121.758 688.52 117.386 680.732 119.63 672.751C121.874 664.771 129.663 660.4 137.263 662.536C144.864 664.673 149.235 672.463 146.991 680.444C144.748 688.424 136.959 692.793 129.357 690.656ZM187.466 609.405C183.914 603.075 181.123 596.96 179.746 591.653L179.854 591.272C179.895 591.071 179.863 590.861 179.762 590.683C179.662 590.504 179.5 590.368 179.306 590.299L178.756 589.324L176.099 588.577C175.719 588.47 175.719 588.47 175.233 588.743C174.852 588.636 174.366 588.91 174.366 588.91L173.392 589.455C173.285 589.836 172.906 589.73 172.799 590.109L151.966 664.21C149.02 660.102 144.995 656.919 139.676 655.424C127.892 652.111 115.722 658.942 112.303 671.101C108.991 682.882 115.714 695.432 127.495 698.744C139.274 702.055 151.445 695.226 154.863 683.066L176.764 605.166C178.023 607.98 179.39 610.412 180.647 613.228C185.898 623.725 191.908 634.435 188.417 642.474C186.543 647.687 180.485 651.727 171.284 655.289C169.063 655.895 168.043 658.068 169.028 660.395C169.468 661.749 170.5 662.451 171.642 662.772C172.401 662.985 173.268 662.817 174.134 662.651C185.938 658.588 192.908 652.757 195.805 645.372C199.982 633.424 193.535 621.361 187.466 609.405Z" fill="#222222"/>
</g>
<g clip-path="url(#clip1_261_47)">
<path fill-rule="evenodd" clip-rule="evenodd" d="M1207.64 664.276C1200.77 668.173 1192.16 665.8 1188.07 658.59C1183.98 651.381 1186.35 642.77 1193.22 638.873C1200.08 634.975 1208.7 637.35 1212.79 644.559C1216.88 651.769 1214.5 660.378 1207.64 664.276ZM1190.78 565.815C1183.79 563.886 1177.48 561.566 1172.74 558.811L1172.54 558.467C1172.43 558.296 1172.26 558.172 1172.06 558.117C1171.86 558.063 1171.65 558.082 1171.47 558.172L1170.39 557.876L1167.99 559.239C1167.64 559.433 1167.64 559.433 1167.5 559.971C1167.15 560.166 1167 560.705 1167 560.705L1166.71 561.78C1166.9 562.125 1166.56 562.319 1166.75 562.662L1204.75 629.602C1199.76 628.805 1194.67 629.426 1189.86 632.154C1179.22 638.197 1175.51 651.652 1181.74 662.635C1187.78 673.278 1201.43 677.331 1212.07 671.289C1222.72 665.249 1226.43 651.796 1220.19 640.81L1180.24 570.438C1183.13 571.523 1185.82 572.263 1188.7 573.351C1199.86 577.005 1211.7 580.27 1214.95 588.407C1217.34 593.407 1215.95 600.553 1212 609.599C1210.87 611.603 1211.7 613.857 1214.05 614.794C1215.32 615.434 1216.54 615.194 1217.57 614.608C1218.26 614.219 1218.75 613.485 1219.24 612.753C1224.66 601.506 1225.42 592.451 1222.21 585.196C1216.66 573.821 1203.55 569.916 1190.78 565.815Z" fill="#222222"/>
</g>
<g clip-path="url(#clip2_261_47)">
<path d="M94.0002 52.8348C93.2779 52.5751 92.5054 52.4852 91.7428 52.572C90.9801 52.6589 90.2477 52.9201 89.6022 53.3356L55.5227 76.543C54.5763 77.1833 53.8777 78.1284 53.5433 79.221C53.2089 80.3137 53.2588 81.4879 53.6848 82.5482L71.569 131.11C68.9824 130.846 66.3698 131.171 63.9263 132.059C60.6784 133.256 57.8581 135.388 55.8221 138.187C53.7861 140.986 52.6259 144.326 52.488 147.784C52.3502 151.243 53.241 154.664 55.0478 157.616C56.8546 160.569 59.4962 162.919 62.6386 164.37C65.7811 165.82 69.2831 166.307 72.702 165.767C76.1209 165.228 79.303 163.686 81.8459 161.338C84.3889 158.99 86.1784 155.941 86.9883 152.576C87.7982 149.211 87.592 145.681 86.3959 142.433L73.0562 106.212L103.95 85.3497L104.278 85.2287L104.911 84.1966L105.442 83.4682C105.591 83.1722 105.709 82.8609 105.792 82.5398C105.896 82.2567 105.967 81.9626 106.002 81.6632C106.048 81.3478 106.038 81.027 105.973 80.715C105.913 80.4018 105.802 80.1006 105.645 79.8235C105.62 79.6916 105.573 79.5647 105.506 79.4482L96.8667 55.9885C96.6507 55.2841 96.2818 54.6362 95.7862 54.091C95.2907 53.5458 94.6808 53.1169 94.0002 52.8348ZM72.5661 155.519C71.1741 156.032 69.6614 156.12 68.2192 155.773C66.777 155.426 65.4701 154.659 64.4639 153.569C63.4576 152.479 62.797 151.115 62.5658 149.65C62.3346 148.185 62.5431 146.684 63.1648 145.337C63.7866 143.991 64.7938 142.858 66.059 142.084C67.3242 141.31 68.7906 140.928 70.2728 140.987C71.755 141.046 73.1864 141.543 74.3859 142.416C75.5855 143.289 76.4994 144.497 77.012 145.889C77.6995 147.756 77.6172 149.819 76.7834 151.625C75.9497 153.431 74.4326 154.832 72.5661 155.519ZM95.0563 79.1407L69.4966 96.5463L64.4164 82.752L89.9761 65.3464L95.0563 79.1407Z" fill="#222222"/>
</g>
<g clip-path="url(#clip3_261_47)">
<path d="M630.224 61.0944C629.895 60.456 629.432 59.896 628.868 59.4525C628.303 59.009 627.649 58.6924 626.951 58.5243L562.963 43.341C561.798 43.0622 560.573 43.2104 559.508 43.7587C558.444 44.307 557.612 45.219 557.163 46.3289L537.698 94.2786C535.962 92.3426 533.812 90.8239 531.407 89.8361C528.2 88.5342 524.679 88.2125 521.289 88.9118C517.899 89.611 514.793 91.2998 512.363 93.7644C509.933 96.2291 508.288 99.359 507.637 102.758C506.986 106.158 507.357 109.674 508.704 112.862C510.051 116.05 512.314 118.768 515.205 120.67C518.096 122.573 521.487 123.575 524.948 123.551C528.409 123.526 531.785 122.476 534.649 120.533C537.514 118.589 539.737 115.84 541.039 112.633L555.408 77.2386L609.547 90.0967L601.686 109.462C599.95 107.526 597.8 106.007 595.395 105.019C592.188 103.717 588.667 103.396 585.277 104.095C581.887 104.794 578.781 106.483 576.351 108.948C573.921 111.412 572.276 114.542 571.625 117.942C570.974 121.341 571.345 124.857 572.692 128.045C574.039 131.234 576.302 133.951 579.193 135.853C582.084 137.756 585.475 138.758 588.936 138.734C592.397 138.709 595.773 137.659 598.637 135.716C601.502 133.773 603.725 131.024 605.027 127.817L630.416 65.2736C630.688 64.6044 630.812 63.8844 630.778 63.1629C630.745 62.4415 630.556 61.7358 630.224 61.0944ZM522.003 113C520.629 112.442 519.451 111.489 518.618 110.262C517.785 109.034 517.335 107.587 517.324 106.104C517.314 104.621 517.744 103.168 518.559 101.928C519.374 100.689 520.539 99.7197 521.905 99.1423C523.272 98.565 524.779 98.4058 526.235 98.6849C527.692 98.964 529.034 99.6688 530.09 100.71C531.146 101.752 531.87 103.083 532.17 104.536C532.469 105.989 532.331 107.498 531.774 108.872C531.025 110.715 529.576 112.185 527.743 112.96C525.911 113.734 523.846 113.748 522.003 113ZM585.991 128.183C584.617 127.626 583.439 126.673 582.606 125.445C581.773 124.218 581.323 122.771 581.313 121.287C581.302 119.804 581.732 118.351 582.547 117.112C583.362 115.873 584.527 114.903 585.893 114.326C587.26 113.748 588.767 113.589 590.223 113.868C591.68 114.147 593.022 114.852 594.078 115.894C595.134 116.935 595.858 118.266 596.158 119.719C596.457 121.172 596.319 122.681 595.762 124.055C595.013 125.898 593.564 127.369 591.731 128.143C589.899 128.917 587.834 128.932 585.991 128.183ZM613.365 80.6921L559.225 67.834L564.867 53.9355L618.95 66.9326L613.365 80.6921Z" fill="#222222"/>
</g>
<g clip-path="url(#clip4_261_47)">
<path d="M452.839 563.575L449.056 561.899C444.921 560.067 441.994 556.806 440.814 552.727C439.636 548.643 440.424 544.117 442.981 540.317C448.008 532.832 458.322 529.798 466.471 533.408L475.997 537.628L498.003 487.958C499.286 485.084 501.609 482.802 504.506 481.572C507.403 480.341 510.658 480.253 513.618 481.325L556.462 496.989C558.055 497.577 559.512 498.484 560.743 499.654C561.973 500.825 562.953 502.233 563.621 503.794C564.959 506.944 564.933 510.549 563.547 513.678L539.426 568.023C539.053 568.853 538.646 569.66 538.106 570.461C533.08 577.943 522.766 580.977 514.617 577.367L510.834 575.69C506.699 573.859 503.771 570.598 502.592 566.518C501.414 562.434 502.201 557.909 504.758 554.108C509.785 546.623 520.099 543.589 528.249 547.199L537.775 551.419L545.924 533.025C546.393 531.966 546.405 530.794 545.95 529.728C545.731 529.205 545.406 528.734 544.996 528.344C544.585 527.954 544.097 527.654 543.564 527.463L500.719 511.799C499.733 511.442 498.647 511.471 497.682 511.881C496.716 512.291 495.941 513.052 495.513 514.009L477.698 554.222C477.549 554.559 477.359 554.864 477.142 555.139C476.597 556.278 476.461 556.471 476.332 556.672C471.301 564.146 460.985 567.184 452.839 563.575ZM463.115 540.973C458.681 539.009 452.606 540.82 449.843 544.932C448.641 546.726 448.261 548.676 448.764 550.433C449.252 552.12 450.547 553.508 452.408 554.333L456.192 556.009C460.626 557.973 466.701 556.161 469.464 552.05C469.456 552.037 469.996 550.96 472.6 545.175L463.115 540.973ZM524.893 554.764C520.459 552.8 514.384 554.611 511.621 558.723C510.419 560.517 510.039 562.467 510.541 564.224C511.03 565.911 512.324 567.299 514.186 568.124L517.969 569.8C522.403 571.764 528.478 569.953 531.241 565.841C531.506 565.447 531.695 565.032 531.874 564.627L534.408 558.979L524.893 554.764ZM510.768 489.096C509.781 488.739 508.696 488.768 507.731 489.178C506.765 489.588 505.99 490.349 505.562 491.306L500.245 503.307C501.353 503.39 502.463 503.624 503.554 504.021L546.398 519.685C547.981 520.282 549.437 521.172 550.656 522.323L555.975 510.318C556.444 509.259 556.456 508.088 556 507.021C555.781 506.499 555.456 506.028 555.045 505.638C554.634 505.248 554.147 504.948 553.614 504.756L510.768 489.096Z" fill="#222222"/>
</g>
<g clip-path="url(#clip5_261_47)">
<path d="M1146.72 141.203L1143.07 143.141C1139.07 145.259 1134.7 145.544 1130.76 143.949C1126.82 142.351 1123.75 138.934 1122.35 134.575C1119.57 125.996 1123.56 116.013 1131.44 111.839L1140.64 106.96L1115.2 58.958C1113.74 56.1728 1113.38 52.9359 1114.2 49.8982C1115.03 46.8605 1116.97 44.2472 1119.64 42.5839L1158.44 18.5894C1159.89 17.7011 1161.5 17.1171 1163.18 16.8729C1164.86 16.6288 1166.58 16.7297 1168.22 17.1694C1171.52 18.0648 1174.34 20.3137 1175.94 23.3374L1203.74 75.8928C1204.17 76.6991 1204.55 77.5175 1204.84 78.4379C1207.62 87.0129 1203.63 96.9958 1195.75 101.17L1192.1 103.107C1188.1 105.225 1183.73 105.51 1179.79 103.915C1175.85 102.317 1172.78 98.9002 1171.38 94.5409C1168.6 85.9623 1172.59 75.9793 1180.47 71.8056L1189.67 66.9265L1180.25 49.15C1179.71 48.1263 1178.8 47.3927 1177.68 47.0916C1177.13 46.9401 1176.56 46.9042 1176 46.986C1175.44 47.0678 1174.9 47.2656 1174.42 47.5667L1135.62 71.5612C1134.73 72.1159 1134.08 72.987 1133.81 73.9996C1133.54 75.0121 1133.65 76.0911 1134.14 77.0199L1154.74 115.882C1154.91 116.207 1155.03 116.545 1155.11 116.885C1155.67 118.018 1155.74 118.244 1155.82 118.47C1158.58 127.045 1154.59 137.032 1146.72 141.203ZM1135.31 119.154C1131.02 121.425 1128.69 127.32 1130.22 132.034C1130.88 134.088 1132.18 135.591 1133.87 136.282C1135.5 136.942 1137.39 136.782 1139.19 135.829L1142.85 133.891C1147.13 131.62 1149.46 125.725 1147.94 121.011C1147.92 121.01 1147.41 119.918 1144.47 114.296L1135.31 119.154ZM1184.34 79.1199C1180.05 81.3909 1177.72 87.2862 1179.25 91.9999C1179.91 94.0536 1181.21 95.5574 1182.9 96.2485C1184.53 96.9078 1186.42 96.7482 1188.22 95.7948L1191.88 93.8571C1196.16 91.5862 1198.49 85.6909 1196.97 80.9771C1196.82 80.5252 1196.61 80.1211 1196.41 79.7299L1193.53 74.2466L1184.34 79.1199ZM1123.99 49.6278C1123.1 50.1826 1122.45 51.0537 1122.18 52.0662C1121.9 53.0788 1122.02 54.1578 1122.51 55.0865L1128.65 66.684C1129.41 65.8647 1130.27 65.137 1131.26 64.525L1170.06 40.5305C1171.51 39.6558 1173.11 39.0607 1174.76 38.8141L1168.62 27.213C1168.07 26.1892 1167.16 25.4556 1166.04 25.1545C1165.5 25.0041 1164.92 24.9687 1164.36 25.0505C1163.8 25.1322 1163.27 25.3295 1162.79 25.6297L1123.99 49.6278Z" fill="#222222"/>
</g>
<g clip-path="url(#clip6_261_47)">
<path fill-rule="evenodd" clip-rule="evenodd" d="M342.319 316.791C334.043 325.887 321.299 329.222 314.351 324.7C307.399 320.179 308.66 309.307 317.156 300.418C325.656 291.532 335.013 288.155 342.332 291.303C350.209 294.689 349.267 309.166 342.319 316.791ZM285.851 350.737C277.422 359.766 265.709 363.807 258.696 359.315C251.687 354.825 252.87 343.897 261.344 334.908C269.815 325.921 278.951 323.1 286.559 325.575C294.899 328.287 293.027 343.048 285.851 350.737ZM328.443 229.745C327.906 229.925 327.455 230.23 327.071 230.595L272.736 264.18C270.769 264.838 269.712 266.962 270.368 268.926L287.013 318.725C277.917 316.364 265.909 320.386 257.101 329.664C245.98 341.38 244.245 356.858 253.224 364.248C262.204 371.633 278.496 368.125 289.615 356.414C296.782 348.863 299.865 338.07 298.879 330.567L278.391 269.269L327.544 238.883L342.72 284.29C333.624 281.929 321.616 285.951 312.808 295.229C301.687 306.945 299.953 322.423 308.931 329.813C317.911 337.198 334.965 333.934 346.172 322.312C354.565 313.611 356.275 303.894 354.586 296.132L333.189 232.113C332.531 230.146 330.41 229.088 328.443 229.745Z" fill="#222222"/>
</g>
<path fill-rule="evenodd" clip-rule="evenodd" d="M777.952 571.667C767.575 580.943 763.797 593.754 769.517 600.273C775.242 606.792 788.3 604.556 798.681 595.281C808.751 586.282 811.805 577.467 807.601 567.275L773.821 479.003L766.695 481.73L797.774 562.944C791.703 562.937 784.323 565.976 777.952 571.667Z" fill="#222222"/>
<g clip-path="url(#clip7_261_47)">
<path d="M886 88.8348C885.278 88.5751 884.505 88.4852 883.743 88.572C882.98 88.6589 882.248 88.9201 881.602 89.3356L847.523 112.543C846.576 113.183 845.878 114.128 845.543 115.221C845.209 116.314 845.259 117.488 845.685 118.548L863.569 167.11C860.982 166.846 858.37 167.171 855.926 168.059C852.678 169.256 849.858 171.388 847.822 174.187C845.786 176.986 844.626 180.326 844.488 183.784C844.35 187.243 845.241 190.664 847.048 193.616C848.855 196.569 851.496 198.919 854.639 200.37C857.781 201.82 861.283 202.307 864.702 201.767C868.121 201.228 871.303 199.686 873.846 197.338C876.389 194.99 878.178 191.941 878.988 188.576C879.798 185.211 879.592 181.681 878.396 178.433L865.056 142.212L895.95 121.35L896.278 121.229L896.911 120.197L897.442 119.468C897.591 119.172 897.709 118.861 897.792 118.54C897.896 118.257 897.967 117.963 898.002 117.663C898.048 117.348 898.038 117.027 897.973 116.715C897.913 116.402 897.802 116.101 897.645 115.824C897.62 115.692 897.573 115.565 897.506 115.448L888.867 91.9885C888.651 91.2841 888.282 90.6362 887.786 90.091C887.291 89.5458 886.681 89.1169 886 88.8348ZM864.566 191.519C863.174 192.032 861.661 192.12 860.219 191.773C858.777 191.426 857.47 190.659 856.464 189.569C855.458 188.479 854.797 187.115 854.566 185.65C854.335 184.185 854.543 182.684 855.165 181.337C855.787 179.991 856.794 178.858 858.059 178.084C859.324 177.31 860.791 176.928 862.273 176.987C863.755 177.046 865.186 177.543 866.386 178.416C867.586 179.289 868.499 180.497 869.012 181.889C869.699 183.756 869.617 185.819 868.783 187.625C867.95 189.431 866.433 190.832 864.566 191.519ZM887.056 115.141L861.497 132.546L856.416 118.752L881.976 101.346L887.056 115.141Z" fill="#222222"/>
</g>
<defs>
<clipPath id="clip0_261_47">
<rect width="74" height="120" fill="white" transform="translate(138.477 578) rotate(15.7025)"/>
</clipPath>
<clipPath id="clip1_261_47">
<rect width="74" height="120" fill="white" transform="translate(1134 578.532) rotate(-29.5821)"/>
</clipPath>
<clipPath id="clip2_261_47">
<rect width="120" height="120" fill="white" transform="translate(0 75.4707) rotate(-20.2178)"/>
</clipPath>
<clipPath id="clip3_261_47">
<rect width="120" height="120" fill="white" transform="translate(534.136 10) rotate(22.0946)"/>
</clipPath>
<clipPath id="clip4_261_47">
<rect width="120" height="120" fill="white" transform="translate(471.606 450) rotate(23.8942)"/>
</clipPath>
<clipPath id="clip5_261_47">
<rect width="120" height="120" fill="white" transform="translate(1069.05 56.2421) rotate(-27.9223)"/>
</clipPath>
<clipPath id="clip6_261_47">
<rect width="120" height="120" fill="white" transform="translate(217 263.04) rotate(-18.4815)"/>
</clipPath>
<clipPath id="clip7_261_47">
<rect width="120" height="120" fill="white" transform="translate(792 111.471) rotate(-20.2178)"/>
</clipPath>
</defs>
</svg>
