<svg width="1280" height="781" viewBox="0 0 1280 781" fill="none" xmlns="http://www.w3.org/2000/svg">
<line x1="15.5" y1="781" x2="15.5" y2="1" stroke="#222222"/>
<line x1="93.5" y1="781" x2="93.5" y2="1" stroke="#222222"/>
<line x1="171.5" y1="781" x2="171.5" y2="1" stroke="#222222"/>
<line x1="249.5" y1="781" x2="249.5" y2="1" stroke="#222222"/>
<line x1="327.5" y1="781" x2="327.5" y2="1" stroke="#222222"/>
<line x1="405.5" y1="781" x2="405.5" y2="1" stroke="#222222"/>
<line x1="483.5" y1="781" x2="483.5" y2="1" stroke="#222222"/>
<line x1="561.5" y1="781" x2="561.5" y2="1" stroke="#222222"/>
<line x1="639.5" y1="781" x2="639.5" y2="1" stroke="#222222"/>
<line x1="717.5" y1="781" x2="717.5" y2="1" stroke="#222222"/>
<line x1="795.5" y1="781" x2="795.5" y2="1" stroke="#222222"/>
<line x1="873.5" y1="781" x2="873.5" y2="1" stroke="#222222"/>
<line x1="951.5" y1="781" x2="951.5" y2="1" stroke="#222222"/>
<line x1="1029.5" y1="781" x2="1029.5" y2="1" stroke="#222222"/>
<line x1="1107.5" y1="781" x2="1107.5" y2="1" stroke="#222222"/>
<line x1="1185.5" y1="781" x2="1185.5" y2="1" stroke="#222222"/>
<line x1="1263.5" y1="781" x2="1263.5" y2="1" stroke="#222222"/>
<line y1="0.5" x2="1280" y2="0.5" stroke="#222222"/>
<line y1="78.5" x2="1280" y2="78.5" stroke="#222222"/>
<line y1="156.5" x2="1280" y2="156.5" stroke="#222222"/>
<line y1="234.5" x2="1280" y2="234.5" stroke="#222222"/>
<line y1="312.5" x2="1280" y2="312.5" stroke="#222222"/>
<line y1="390.5" x2="1280" y2="390.5" stroke="#222222"/>
<line y1="468.5" x2="1280" y2="468.5" stroke="#222222"/>
<line y1="546.5" x2="1280" y2="546.5" stroke="#222222"/>
<line y1="624.5" x2="1280" y2="624.5" stroke="#222222"/>
<line y1="702.5" x2="1280" y2="702.5" stroke="#222222"/>
<line y1="780.5" x2="1280" y2="780.5" stroke="#222222"/>
</svg>
