<svg width="19" height="16" viewBox="0 0 19 16" fill="none" xmlns="http://www.w3.org/2000/svg">
<path id="Arrow 1" d="M1.00317 7C0.450889 7 0.00317383 7.44772 0.00317383 8C0.00317383 8.55228 0.450889 9 1.00317 9V7ZM17.7103 8.70711C18.1008 8.31658 18.1008 7.68342 17.7103 7.29289L11.3463 0.928932C10.9558 0.538408 10.3226 0.538408 9.93211 0.928932C9.54158 1.31946 9.54158 1.95262 9.93211 2.34315L15.589 8L9.93211 13.6569C9.54158 14.0474 9.54158 14.6805 9.93211 15.0711C10.3226 15.4616 10.9558 15.4616 11.3463 15.0711L17.7103 8.70711ZM1.00317 9H17.0032V7H1.00317V9Z" fill="white"/>
</svg>
