<svg width="28" height="28" viewBox="0 0 28 28" fill="none" xmlns="http://www.w3.org/2000/svg">
<g id="add-playlist">
<path id="Vector" d="M15.1668 11.6667H3.50016C2.8585 11.6667 2.3335 12.1917 2.3335 12.8333C2.3335 13.475 2.8585 14 3.50016 14H15.1668C15.8085 14 16.3335 13.475 16.3335 12.8333C16.3335 12.1917 15.8085 11.6667 15.1668 11.6667ZM15.1668 7H3.50016C2.8585 7 2.3335 7.525 2.3335 8.16667C2.3335 8.80833 2.8585 9.33333 3.50016 9.33333H15.1668C15.8085 9.33333 16.3335 8.80833 16.3335 8.16667C16.3335 7.525 15.8085 7 15.1668 7ZM21.0002 16.3333V12.8333C21.0002 12.1917 20.4752 11.6667 19.8335 11.6667C19.1918 11.6667 18.6668 12.1917 18.6668 12.8333V16.3333H15.1668C14.5252 16.3333 14.0002 16.8583 14.0002 17.5C14.0002 18.1417 14.5252 18.6667 15.1668 18.6667H18.6668V22.1667C18.6668 22.8083 19.1918 23.3333 19.8335 23.3333C20.4752 23.3333 21.0002 22.8083 21.0002 22.1667V18.6667H24.5002C25.1418 18.6667 25.6668 18.1417 25.6668 17.5C25.6668 16.8583 25.1418 16.3333 24.5002 16.3333H21.0002ZM3.50016 18.6667H10.5002C11.1418 18.6667 11.6668 18.1417 11.6668 17.5C11.6668 16.8583 11.1418 16.3333 10.5002 16.3333H3.50016C2.8585 16.3333 2.3335 16.8583 2.3335 17.5C2.3335 18.1417 2.8585 18.6667 3.50016 18.6667Z" fill="white"/>
</g>
</svg>
