<svg width="28" height="28" viewBox="0 0 28 28" fill="none" xmlns="http://www.w3.org/2000/svg">
<g clip-path="url(#clip0_165_215)">
<path d="M9.43909 0.0874514C7.13675 0.541358 5.56175 2.45542 5.43597 4.94917C5.33753 6.85229 6.17425 8.59136 8.13206 10.5382C9.02347 11.4242 9.86565 12.1734 12.2938 14.2351C13.8086 15.5203 14.0383 15.6953 14.2407 15.7226C14.3938 15.75 14.5414 15.7335 14.6617 15.6789C14.8532 15.6023 17.8992 13.0375 19.3594 11.7359C21.2133 10.0789 22.1649 8.93042 22.7774 7.63979C23.5266 6.06479 23.5102 4.23823 22.7446 2.71245C22.4328 2.09995 22.2414 1.83745 21.7602 1.3562C20.5024 0.114795 18.6375 -0.311767 16.9422 0.262451C16.1657 0.524951 15.236 1.23589 14.6563 2.02339L14.3719 2.4062L14.0602 1.97964C12.9391 0.470264 11.1672 -0.25708 9.43909 0.0874514Z" fill="white"/>
<path d="M9.26953 16.2475C8.50391 16.346 7.69453 16.6249 7.04375 17.0132L6.67188 17.2319V22.2796V27.3272L7.28984 27.4749C8.02813 27.6499 8.60781 27.7538 9.48828 27.8741C10.0352 27.9452 10.8938 27.9671 14.6781 27.9835C17.8227 27.9999 19.3539 27.9889 19.6711 27.9452C20.9617 27.7757 22.1266 27.2069 23.0289 26.31C23.4555 25.8835 27.6391 20.3218 27.7813 19.9882C28.2242 18.96 27.9344 17.9429 27.0758 17.5054C26.6 17.2593 25.9055 17.314 25.4625 17.6311C25.3258 17.7296 24.3195 18.8397 23.2039 20.1304C21.1313 22.5147 20.9672 22.6788 20.3547 22.9249L20.043 23.0507L16.5156 23.0671C13.2289 23.078 12.9773 23.0725 12.7969 22.985C12.25 22.7061 12.2063 21.9022 12.7258 21.5632C12.8625 21.4702 13.0977 21.4647 15.7227 21.4374C18.4844 21.41 18.5719 21.4046 18.818 21.2952C20.0648 20.7155 20.1031 18.9382 18.8836 18.3421L18.5664 18.1835L16.6523 18.1507C15.5422 18.1343 14.6672 18.096 14.5742 18.0632C14.2844 17.9647 13.9727 17.7897 13.6828 17.56C12.7094 16.789 11.7633 16.3843 10.6094 16.2421C10.0844 16.1819 9.81094 16.1819 9.26953 16.2475Z" fill="white"/>
<path d="M0.432031 16.6359C0.322656 16.6961 0.180469 16.8438 0.114844 16.9531C0 17.1609 0 17.1719 0 22.2578C0 27.3492 0 27.3547 0.114844 27.5625C0.333594 27.9563 0.497656 28 1.67891 28C2.25312 28 2.84922 27.9727 3.01328 27.9453C3.99766 27.7594 4.79062 26.9664 4.97656 25.982C5.05312 25.5883 5.05312 18.9273 4.97656 18.5336C4.79062 17.5492 3.99766 16.7563 3.01328 16.5703C2.84922 16.543 2.24766 16.5156 1.67344 16.5156C0.710937 16.5156 0.6125 16.5266 0.432031 16.6359Z" fill="white"/>
</g>
<defs>
<clipPath id="clip0_165_215">
<rect width="28" height="28" fill="white"/>
</clipPath>
</defs>
</svg>
