<svg width="28" height="28" viewBox="0 0 28 28" fill="none" xmlns="http://www.w3.org/2000/svg">
<g id="fav">
<path id="Vector" d="M13.5858 24.395L13.5777 24.3915L13.552 24.3775C13.4018 24.2948 13.2529 24.2101 13.1052 24.1231C11.3293 23.0679 9.66965 21.8282 8.15383 20.4248C5.46933 17.92 2.625 14.203 2.625 9.62496C2.625 6.20896 5.49967 3.49996 8.96933 3.49996C9.93388 3.49524 10.8871 3.70802 11.758 4.1225C12.629 4.53698 13.3953 5.14247 14 5.89396C14.6048 5.14232 15.3713 4.53673 16.2425 4.12225C17.1137 3.70776 18.0671 3.49506 19.0318 3.49996C22.5003 3.49996 25.375 6.20896 25.375 9.62496C25.375 14.2041 22.5307 17.9211 19.8462 20.4236C18.3304 21.8271 16.6707 23.0667 14.8948 24.122C14.7471 24.2093 14.5982 24.2945 14.448 24.3775L14.4223 24.3915L14.4142 24.3961L14.4107 24.3973C14.2842 24.4643 14.1432 24.4993 14 24.4993C13.8568 24.4993 13.7158 24.4643 13.5893 24.3973L13.5858 24.395Z" fill="white"/>
</g>
</svg>
