<svg width="28" height="28" viewBox="0 0 28 28" fill="none" xmlns="http://www.w3.org/2000/svg">
<g id="pause">
<path id="Vector" fill-rule="evenodd" clip-rule="evenodd" d="M7.875 6.125C7.875 5.89294 7.96719 5.67038 8.13128 5.50628C8.29538 5.34219 8.51794 5.25 8.75 5.25H10.5C10.7321 5.25 10.9546 5.34219 11.1187 5.50628C11.2828 5.67038 11.375 5.89294 11.375 6.125V21.875C11.375 22.1071 11.2828 22.3296 11.1187 22.4937C10.9546 22.6578 10.7321 22.75 10.5 22.75H8.75C8.51794 22.75 8.29538 22.6578 8.13128 22.4937C7.96719 22.3296 7.875 22.1071 7.875 21.875V6.125ZM16.625 6.125C16.625 5.89294 16.7172 5.67038 16.8813 5.50628C17.0454 5.34219 17.2679 5.25 17.5 5.25H19.25C19.4821 5.25 19.7046 5.34219 19.8687 5.50628C20.0328 5.67038 20.125 5.89294 20.125 6.125V21.875C20.125 22.1071 20.0328 22.3296 19.8687 22.4937C19.7046 22.6578 19.4821 22.75 19.25 22.75H17.5C17.2679 22.75 17.0454 22.6578 16.8813 22.4937C16.7172 22.3296 16.625 22.1071 16.625 21.875V6.125Z" fill="white"/>
</g>
</svg>
