<svg width="28" height="28" viewBox="0 0 28 28" fill="none" xmlns="http://www.w3.org/2000/svg">
<g id="fav">
<path id="Vector" d="M13.5858 24.3951L13.5777 24.3916L13.552 24.3776C13.4018 24.295 13.2529 24.2102 13.1052 24.1232C11.3293 23.068 9.66965 21.8284 8.15383 20.4249C5.46933 17.9201 2.625 14.2031 2.625 9.62508C2.625 6.20908 5.49967 3.50008 8.96933 3.50008C9.93388 3.49536 10.8871 3.70815 11.758 4.12262C12.629 4.5371 13.3953 5.1426 14 5.89408C14.6048 5.14244 15.3713 4.53685 16.2425 4.12237C17.1137 3.70789 18.0671 3.49518 19.0318 3.50008C22.5003 3.50008 25.375 6.20908 25.375 9.62508C25.375 14.2042 22.5307 17.9212 19.8462 20.4237C18.3304 21.8272 16.6707 23.0669 14.8948 24.1221C14.7471 24.2094 14.5982 24.2946 14.448 24.3776L14.4223 24.3916L14.4142 24.3962L14.4107 24.3974C14.2842 24.4644 14.1432 24.4995 14 24.4995C13.8568 24.4995 13.7158 24.4644 13.5893 24.3974L13.5858 24.3951Z" fill="#FF0000"/>
</g>
</svg>
