<svg width="24" height="24" viewBox="0 0 24 24" fill="none" xmlns="http://www.w3.org/2000/svg">
<g id="Frame">
<path id="Vector" d="M13.5 4.05995C13.5 2.72395 11.884 2.05495 10.94 2.99995L6.44001 7.49995H4.50801C3.36701 7.49995 2.19001 8.16395 1.84801 9.40495C1.61598 10.2504 1.49893 11.1232 1.50001 12C1.50001 12.898 1.62101 13.768 1.85001 14.595C2.19101 15.835 3.36801 16.5 4.50901 16.5H6.43901L10.939 21C11.884 21.945 13.5 21.276 13.5 19.94V4.05995ZM18.584 5.10595C18.7246 4.9655 18.9153 4.88661 19.114 4.88661C19.3128 4.88661 19.5034 4.9655 19.644 5.10595C23.452 8.91295 23.452 15.086 19.644 18.894C19.5753 18.9676 19.4925 19.0267 19.4005 19.0677C19.3085 19.1087 19.2092 19.1308 19.1085 19.1325C19.0078 19.1343 18.9078 19.1158 18.8144 19.0781C18.721 19.0404 18.6362 18.9842 18.565 18.913C18.4938 18.8418 18.4376 18.7569 18.3999 18.6635C18.3622 18.5702 18.3436 18.4701 18.3454 18.3694C18.3472 18.2687 18.3692 18.1694 18.4102 18.0774C18.4512 17.9854 18.5103 17.9026 18.584 17.834C19.3502 17.0679 19.958 16.1583 20.3727 15.1573C20.7873 14.1563 21.0007 13.0834 21.0007 12C21.0007 10.9165 20.7873 9.84358 20.3727 8.84257C19.958 7.84157 19.3502 6.93205 18.584 6.16595C18.4436 6.02533 18.3647 5.8347 18.3647 5.63595C18.3647 5.4372 18.4436 5.24658 18.584 5.10595Z" fill="white"/>
<path id="Vector_2" d="M15.9322 7.75695C16.0019 7.68725 16.0846 7.63197 16.1756 7.59425C16.2666 7.55652 16.3642 7.53711 16.4627 7.53711C16.5612 7.53711 16.6588 7.55652 16.7498 7.59425C16.8409 7.63197 16.9236 7.68725 16.9932 7.75695C17.5505 8.31411 17.9925 8.97559 18.2941 9.70361C18.5957 10.4316 18.7509 11.2119 18.7509 11.9999C18.7509 12.788 18.5957 13.5683 18.2941 14.2963C17.9925 15.0243 17.5505 15.6858 16.9932 16.2429C16.8517 16.3795 16.6622 16.455 16.4656 16.4532C16.2689 16.4514 16.0808 16.3724 15.9418 16.2333C15.8029 16.0942 15.7241 15.9061 15.7224 15.7094C15.7208 15.5128 15.7965 15.3233 15.9332 15.1819C16.3511 14.7641 16.6825 14.268 16.9087 13.722C17.1348 13.1761 17.2512 12.5909 17.2512 11.9999C17.2512 11.409 17.1348 10.8238 16.9087 10.2779C16.6825 9.73189 16.3511 9.23581 15.9332 8.81795C15.7928 8.67732 15.7139 8.4867 15.7139 8.28795C15.7139 8.0892 15.7928 7.89857 15.9332 7.75795L15.9322 7.75695Z" fill="white"/>
</g>
</svg>
