<svg width="131" height="40" viewBox="0 0 131 40" fill="none" xmlns="http://www.w3.org/2000/svg">
<path d="M5.59829 0.126483C3.96566 0.474309 2.94822 1.44664 2.46711 3.12253L2.28571 3.75494V36.2451L2.46711 36.8775C2.84569 38.1818 3.48455 39.004 4.48621 39.4862C5.38534 39.913 5.99265 40 8.1616 40H10.0545L10.0387 22.1186C10.0308 12.2767 10.0072 3.28063 9.99141 2.11067L9.96775 6.65727e-07L8.05907 0.0079058C6.6946 0.0079058 5.99265 0.0474315 5.59829 0.126483Z" fill="url(#paint0_linear_18_11)"/>
<path d="M12.1052 3.95257L12.2866 3.99209C12.3812 4.01581 15.4099 4.03952 19.0064 4.05533C25.0321 4.07905 25.5921 4.08696 26.0259 4.22134C27.7926 4.75099 29.1492 5.88142 29.9221 7.45455C30.4506 8.53755 30.5925 9.2332 30.5373 10.4269C30.4506 12.4506 29.5357 14.0474 27.7768 15.249C26.4124 16.1818 24.3381 16.4664 22.7133 15.9368C20.6863 15.2806 19.0931 13.5652 18.6041 11.4862C18.3202 10.3004 18.5016 8.69565 19.0458 7.51779C19.1799 7.24111 19.2824 7.00395 19.2824 6.98814C19.2824 6.97233 17.6656 6.95652 15.6938 6.95652H12.1052V14.9328C12.1052 22.1344 12.1209 22.9091 12.2314 22.9565C12.3023 22.9802 15.2758 23.004 18.8407 23.004C25.0558 23.004 25.3555 23.0119 25.9549 23.1621C27.1695 23.4625 28.4551 24.2846 29.1886 25.2016C30.072 26.3162 30.4821 27.4071 30.5373 28.7747C30.6162 30.6166 30.072 32.0158 28.7864 33.3281C27.7768 34.3557 26.6174 34.9249 25.1504 35.1146C23.6361 35.3123 21.8536 34.7668 20.6627 33.747C19.2351 32.5217 18.4858 30.9249 18.4779 29.0909C18.4779 28.1107 18.6199 27.4229 19.0064 26.585C19.1562 26.253 19.2824 25.9526 19.2824 25.9209C19.2824 25.8419 12.7282 25.8261 12.3497 25.8972L12.1052 25.9447V40H19.7399C24.5274 40 27.627 39.9684 28.0766 39.921C31.0894 39.5652 33.4635 38.585 35.175 36.9802C36.8865 35.3755 37.8645 33.3597 38.2194 30.6957C38.3535 29.6364 38.2746 27.0514 38.0695 26.1028C37.2335 22.2688 35.0093 20.0316 30.9553 18.9644L30.6004 18.8696L30.9948 18.7352C33.2663 17.9526 35.1276 16.3636 36.0346 14.4427C37.1073 12.1581 37.2414 8.55336 36.3501 6.04743C35.1434 2.67984 32.0674 0.600789 27.5245 0.0790502C27.0907 0.0316193 23.9753 0 19.4638 0H12.1052V3.95257Z" fill="url(#paint1_linear_18_11)"/>
<path d="M49.4148 34.2557C48.0682 34.2557 46.9091 33.983 45.9375 33.4375C44.9716 32.8864 44.2273 32.108 43.7045 31.1023C43.1818 30.0909 42.9205 28.8949 42.9205 27.5142C42.9205 26.1676 43.1818 24.9858 43.7045 23.9688C44.2273 22.9517 44.9631 22.1591 45.9119 21.5909C46.8665 21.0227 47.9858 20.7386 49.2699 20.7386C50.1335 20.7386 50.9375 20.8778 51.6818 21.1562C52.4318 21.429 53.0852 21.8409 53.642 22.392C54.2045 22.9432 54.642 23.6364 54.9545 24.4716C55.267 25.3011 55.4233 26.2727 55.4233 27.3864V28.3835H44.3693V26.1335H52.0057C52.0057 25.6108 51.892 25.1477 51.6648 24.7443C51.4375 24.3409 51.1222 24.0256 50.7188 23.7983C50.321 23.5653 49.858 23.4489 49.3295 23.4489C48.7784 23.4489 48.2898 23.5767 47.8636 23.8324C47.4432 24.0824 47.1136 24.4205 46.875 24.8466C46.6364 25.267 46.5142 25.7358 46.5085 26.2528V28.392C46.5085 29.0398 46.6278 29.5994 46.8665 30.071C47.1108 30.5426 47.4545 30.9062 47.8977 31.1619C48.3409 31.4176 48.8665 31.5455 49.4744 31.5455C49.8778 31.5455 50.2472 31.4886 50.5824 31.375C50.9176 31.2614 51.2045 31.0909 51.4432 30.8636C51.6818 30.6364 51.8636 30.358 51.9886 30.0284L55.3466 30.25C55.1761 31.0568 54.8267 31.7614 54.2983 32.3636C53.7756 32.9602 53.0994 33.4261 52.2699 33.7614C51.446 34.0909 50.4943 34.2557 49.4148 34.2557ZM61.5256 34.2472C60.6903 34.2472 59.946 34.1023 59.2926 33.8125C58.6392 33.517 58.1222 33.0824 57.7415 32.5085C57.3665 31.929 57.179 31.2074 57.179 30.3438C57.179 29.6165 57.3125 29.0057 57.5795 28.5114C57.8466 28.017 58.2102 27.6193 58.6705 27.3182C59.1307 27.017 59.6534 26.7898 60.2386 26.6364C60.8295 26.483 61.4489 26.375 62.0966 26.3125C62.858 26.233 63.4716 26.1591 63.9375 26.0909C64.4034 26.017 64.7415 25.9091 64.9517 25.767C65.1619 25.625 65.267 25.4148 65.267 25.1364V25.0852C65.267 24.5455 65.0966 24.1278 64.7557 23.8324C64.4205 23.5369 63.9432 23.3892 63.3239 23.3892C62.6705 23.3892 62.1506 23.5341 61.7642 23.8239C61.3778 24.108 61.1222 24.4659 60.9972 24.8977L57.6392 24.625C57.8097 23.8295 58.1449 23.142 58.6449 22.5625C59.1449 21.9773 59.7898 21.5284 60.5795 21.2159C61.375 20.8977 62.2955 20.7386 63.3409 20.7386C64.0682 20.7386 64.7642 20.8239 65.429 20.9943C66.0994 21.1648 66.6932 21.429 67.2102 21.7869C67.733 22.1449 68.1449 22.6051 68.446 23.1676C68.7472 23.7244 68.8977 24.392 68.8977 25.1705V34H65.4545V32.1847H65.3523C65.142 32.5938 64.8608 32.9545 64.5085 33.267C64.1562 33.5739 63.733 33.8153 63.2386 33.9915C62.7443 34.1619 62.1733 34.2472 61.5256 34.2472ZM62.5653 31.7415C63.0994 31.7415 63.571 31.6364 63.9801 31.4261C64.3892 31.2102 64.7102 30.9205 64.9432 30.5568C65.1761 30.1932 65.2926 29.7812 65.2926 29.321V27.9318C65.179 28.0057 65.0227 28.0739 64.8239 28.1364C64.6307 28.1932 64.4119 28.2472 64.1676 28.2983C63.9233 28.3437 63.679 28.3864 63.4347 28.4261C63.1903 28.4602 62.9688 28.4915 62.7699 28.5199C62.3438 28.5824 61.9716 28.6818 61.6534 28.8182C61.3352 28.9545 61.0881 29.1392 60.9119 29.3722C60.7358 29.5994 60.6477 29.8835 60.6477 30.2244C60.6477 30.7188 60.8267 31.0966 61.1847 31.358C61.5483 31.6136 62.0085 31.7415 62.5653 31.7415ZM78.6776 20.9091V23.6364H70.794V20.9091H78.6776ZM72.5838 17.7727H76.2145V29.9773C76.2145 30.3125 76.2656 30.5739 76.3679 30.7614C76.4702 30.9432 76.6122 31.071 76.794 31.1449C76.9815 31.2187 77.1974 31.2557 77.4418 31.2557C77.6122 31.2557 77.7827 31.2415 77.9531 31.2131C78.1236 31.179 78.2543 31.1534 78.3452 31.1364L78.9162 33.8381C78.7344 33.8949 78.4787 33.9602 78.1491 34.0341C77.8196 34.1136 77.419 34.1619 76.9474 34.179C76.0724 34.2131 75.3054 34.0966 74.6463 33.8295C73.9929 33.5625 73.4844 33.1477 73.1207 32.5852C72.7571 32.0227 72.5781 31.3125 72.5838 30.4545V17.7727ZM88.0824 20.9091V23.6364H80.0028V20.9091H88.0824ZM81.8523 34V19.9631C81.8523 19.0142 82.0369 18.2273 82.4062 17.6023C82.7812 16.9773 83.2926 16.5085 83.9403 16.196C84.5881 15.8835 85.3239 15.7273 86.1477 15.7273C86.7045 15.7273 87.2131 15.7699 87.6733 15.8551C88.1392 15.9403 88.4858 16.017 88.7131 16.0852L88.0653 18.8125C87.9233 18.767 87.7472 18.7244 87.5369 18.6847C87.3324 18.6449 87.1222 18.625 86.9062 18.625C86.3722 18.625 86 18.75 85.7898 19C85.5795 19.2443 85.4744 19.5881 85.4744 20.0312V34H81.8523ZM95.7464 34.2557C94.4226 34.2557 93.2777 33.9744 92.3118 33.4119C91.3516 32.8437 90.6101 32.054 90.0874 31.0426C89.5646 30.0256 89.3033 28.8466 89.3033 27.5057C89.3033 26.1534 89.5646 24.9716 90.0874 23.9602C90.6101 22.9432 91.3516 22.1534 92.3118 21.5909C93.2777 21.0227 94.4226 20.7386 95.7464 20.7386C97.0703 20.7386 98.2124 21.0227 99.1726 21.5909C100.138 22.1534 100.883 22.9432 101.406 23.9602C101.928 24.9716 102.19 26.1534 102.19 27.5057C102.19 28.8466 101.928 30.0256 101.406 31.0426C100.883 32.054 100.138 32.8437 99.1726 33.4119C98.2124 33.9744 97.0703 34.2557 95.7464 34.2557ZM95.7635 31.4432C96.3658 31.4432 96.8686 31.2727 97.272 30.9318C97.6754 30.5852 97.9794 30.1136 98.1839 29.517C98.3942 28.9205 98.4993 28.2415 98.4993 27.4801C98.4993 26.7188 98.3942 26.0398 98.1839 25.4432C97.9794 24.8466 97.6754 24.375 97.272 24.0284C96.8686 23.6818 96.3658 23.5085 95.7635 23.5085C95.1555 23.5085 94.6442 23.6818 94.2294 24.0284C93.8203 24.375 93.5107 24.8466 93.3004 25.4432C93.0959 26.0398 92.9936 26.7188 92.9936 27.4801C92.9936 28.2415 93.0959 28.9205 93.3004 29.517C93.5107 30.1136 93.8203 30.5852 94.2294 30.9318C94.6442 31.2727 95.1555 31.4432 95.7635 31.4432ZM108.181 16.5455V34H104.55V16.5455H108.181ZM111.089 34V20.9091H114.72V34H111.089ZM112.913 19.2216C112.374 19.2216 111.911 19.0426 111.524 18.6847C111.143 18.321 110.953 17.8864 110.953 17.3807C110.953 16.8807 111.143 16.4517 111.524 16.0938C111.911 15.7301 112.374 15.5483 112.913 15.5483C113.453 15.5483 113.913 15.7301 114.294 16.0938C114.68 16.4517 114.874 16.8807 114.874 17.3807C114.874 17.8864 114.68 18.321 114.294 18.6847C113.913 19.0426 113.453 19.2216 112.913 19.2216ZM123.543 34.2557C122.219 34.2557 121.075 33.9744 120.109 33.4119C119.148 32.8437 118.407 32.054 117.884 31.0426C117.362 30.0256 117.1 28.8466 117.1 27.5057C117.1 26.1534 117.362 24.9716 117.884 23.9602C118.407 22.9432 119.148 22.1534 120.109 21.5909C121.075 21.0227 122.219 20.7386 123.543 20.7386C124.867 20.7386 126.009 21.0227 126.969 21.5909C127.935 22.1534 128.68 22.9432 129.202 23.9602C129.725 24.9716 129.987 26.1534 129.987 27.5057C129.987 28.8466 129.725 30.0256 129.202 31.0426C128.68 32.054 127.935 32.8437 126.969 33.4119C126.009 33.9744 124.867 34.2557 123.543 34.2557ZM123.56 31.4432C124.163 31.4432 124.665 31.2727 125.069 30.9318C125.472 30.5852 125.776 30.1136 125.981 29.517C126.191 28.9205 126.296 28.2415 126.296 27.4801C126.296 26.7188 126.191 26.0398 125.981 25.4432C125.776 24.8466 125.472 24.375 125.069 24.0284C124.665 23.6818 124.163 23.5085 123.56 23.5085C122.952 23.5085 122.441 23.6818 122.026 24.0284C121.617 24.375 121.308 24.8466 121.097 25.4432C120.893 26.0398 120.79 26.7188 120.79 27.4801C120.79 28.2415 120.893 28.9205 121.097 29.517C121.308 30.1136 121.617 30.5852 122.026 30.9318C122.441 31.2727 122.952 31.4432 123.56 31.4432Z" fill="#D3D3D3"/>
<defs>
<linearGradient id="paint0_linear_18_11" x1="3.74812" y1="40" x2="33.7632" y2="2.75717" gradientUnits="userSpaceOnUse">
<stop stop-color="#2418CB"/>
<stop offset="1" stop-color="#FA465D"/>
</linearGradient>
<linearGradient id="paint1_linear_18_11" x1="3.74812" y1="40" x2="33.7632" y2="2.75717" gradientUnits="userSpaceOnUse">
<stop stop-color="#2418CB"/>
<stop offset="1" stop-color="#FA465D"/>
</linearGradient>
</defs>
</svg>
