<svg width="40" height="40" viewBox="0 0 40 40" fill="none" xmlns="http://www.w3.org/2000/svg">
<g id="beatfolio-logo">
<g id="Group 1">
<g id="Vector">
<path d="M5.59835 0.126483C3.96572 0.474309 2.94828 1.44664 2.46717 3.12253L2.28577 3.75494V36.2451L2.46717 36.8775C2.84575 38.1818 3.48461 39.004 4.48627 39.4862C5.3854 39.913 5.99271 40 8.16166 40H10.0546L10.0388 22.1186C10.0309 12.2767 10.0072 3.28063 9.99147 2.11067L9.96781 6.65727e-07L8.05913 0.0079058C6.69466 0.0079058 5.99271 0.0474315 5.59835 0.126483Z" fill="url(#paint0_linear_59_23)"/>
<path d="M12.1052 3.95257L12.2866 3.99209C12.3813 4.01581 15.4099 4.03952 19.0064 4.05533C25.0322 4.07905 25.5922 4.08696 26.026 4.22134C27.7927 4.75099 29.1493 5.88142 29.9222 7.45455C30.4506 8.53755 30.5926 9.2332 30.5374 10.4269C30.4506 12.4506 29.5357 14.0474 27.7769 15.249C26.4124 16.1818 24.3381 16.4664 22.7134 15.9368C20.6864 15.2806 19.0932 13.5652 18.6042 11.4862C18.3203 10.3004 18.5017 8.69565 19.0459 7.51779C19.18 7.24111 19.2825 7.00395 19.2825 6.98814C19.2825 6.97233 17.6656 6.95652 15.6939 6.95652H12.1052V14.9328C12.1052 22.1344 12.121 22.9091 12.2314 22.9565C12.3024 22.9802 15.2758 23.004 18.8408 23.004C25.0559 23.004 25.3556 23.0119 25.955 23.1621C27.1696 23.4625 28.4552 24.2846 29.1887 25.2016C30.0721 26.3162 30.4822 27.4071 30.5374 28.7747C30.6163 30.6166 30.0721 32.0158 28.7865 33.3281C27.7769 34.3557 26.6175 34.9249 25.1505 35.1146C23.6362 35.3123 21.8537 34.7668 20.6627 33.747C19.2352 32.5217 18.4859 30.9249 18.478 29.0909C18.478 28.1107 18.62 27.4229 19.0064 26.585C19.1563 26.253 19.2825 25.9526 19.2825 25.9209C19.2825 25.8419 12.7283 25.8261 12.3497 25.8972L12.1052 25.9447V40H19.7399C24.5274 40 27.6271 39.9684 28.0766 39.921C31.0895 39.5652 33.4635 38.585 35.175 36.9802C36.8865 35.3755 37.8645 33.3597 38.2194 30.6957C38.3535 29.6364 38.2747 27.0514 38.0696 26.1028C37.2336 22.2688 35.0094 20.0316 30.9554 18.9644L30.6005 18.8696L30.9948 18.7352C33.2663 17.9526 35.1277 16.3636 36.0347 14.4427C37.1074 12.1581 37.2414 8.55336 36.3502 6.04743C35.1435 2.67984 32.0675 0.600789 27.5245 0.0790502C27.0907 0.0316193 23.9753 0 19.4639 0H12.1052V3.95257Z" fill="url(#paint1_linear_59_23)"/>
</g>
</g>
</g>
<defs>
<linearGradient id="paint0_linear_59_23" x1="3.74818" y1="40" x2="33.7633" y2="2.75717" gradientUnits="userSpaceOnUse">
<stop stop-color="#2418CB"/>
<stop offset="1" stop-color="#FA465D"/>
</linearGradient>
<linearGradient id="paint1_linear_59_23" x1="3.74818" y1="40" x2="33.7633" y2="2.75717" gradientUnits="userSpaceOnUse">
<stop stop-color="#2418CB"/>
<stop offset="1" stop-color="#FA465D"/>
</linearGradient>
</defs>
</svg>
