<?xml version="1.0" standalone="no"?>
<!DOCTYPE svg PUBLIC "-//W3C//DTD SVG 20010904//EN"
 "http://www.w3.org/TR/2001/REC-SVG-20010904/DTD/svg10.dtd">
<svg version="1.0" xmlns="http://www.w3.org/2000/svg"
 width="700.000000pt" height="700.000000pt" viewBox="0 0 700.000000 700.000000"
 preserveAspectRatio="xMidYMid meet">
<metadata>
Created by potrace 1.14, written by Peter Selinger 2001-2017
</metadata>
<g transform="translate(0.000000,700.000000) scale(0.100000,-0.100000)"
fill="#000000" stroke="none">
<path d="M1085 6992 c-126 -8 -274 -58 -376 -127 -139 -95 -216 -214 -288
-447 l-21 -67 0 -2849 0 -2850 30 -98 c100 -325 273 -480 600 -539 19 -4 191
-9 383 -12 l347 -5 -6 3368 c-3 1853 -6 3428 -7 3499 l-2 130 -310 0 c-171 0
-328 -1 -350 -3z"/>
<path d="M2119 6969 c-4 -226 2 -654 9 -661 6 -6 296 -11 723 -14 955 -6 1574
-13 1629 -19 25 -3 74 -15 110 -26 299 -96 537 -311 668 -604 67 -150 84 -223
86 -380 6 -378 -138 -675 -434 -897 -177 -133 -388 -201 -625 -201 -161 0
-262 21 -405 82 -328 141 -574 451 -635 800 -13 72 -13 274 0 331 2 14 8 41
11 60 12 67 37 146 75 237 22 51 39 94 39 96 0 10 -1237 14 -1246 4 -7 -7 -7
-2356 0 -2614 2 -89 7 -167 10 -172 4 -5 14 -10 24 -10 9 0 510 -2 1112 -5
602 -3 1115 -7 1140 -10 134 -14 207 -35 327 -92 329 -157 564 -477 598 -814
38 -375 -55 -648 -307 -900 -284 -284 -694 -381 -1073 -255 -184 61 -375 197
-488 345 -23 30 -45 57 -48 60 -17 15 -82 139 -112 216 -52 131 -70 235 -70
394 0 176 24 286 94 438 16 35 32 74 35 87 l6 23 -144 2 c-291 5 -950 5 -1022
0 -41 -3 -77 -8 -81 -12 -5 -5 -10 -2035 -6 -2412 l1 -48 1388 5 c763 3 1398
8 1412 10 14 3 45 8 70 11 518 75 924 259 1207 548 152 155 223 255 316 443
37 75 119 307 132 371 50 263 49 254 50 499 0 330 -12 475 -54 636 -163 615
-541 974 -1223 1160 -27 8 -48 16 -48 19 0 3 28 14 62 25 183 58 419 200 573
343 150 140 248 283 340 497 32 75 84 287 99 410 19 144 24 395 12 501 -3 27
-8 74 -11 104 -4 30 -14 96 -25 145 -115 558 -489 955 -1081 1149 -122 40
-326 87 -439 101 -25 3 -61 8 -80 11 -19 3 -635 8 -1367 11 l-1333 5 -1 -33z"/>
</g>
</svg>
