<svg width="29" height="28" viewBox="0 0 29 28" fill="none" xmlns="http://www.w3.org/2000/svg">
<g id="Frame">
<path id="Vector" fill-rule="evenodd" clip-rule="evenodd" d="M12.75 4.375C11.7158 4.375 10.6918 4.57869 9.73637 4.97445C8.78093 5.3702 7.9128 5.95027 7.18153 6.68153C6.45027 7.41279 5.8702 8.28093 5.47445 9.23637C5.07869 10.1918 4.875 11.2158 4.875 12.25C4.875 13.2842 5.07869 14.3082 5.47445 15.2636C5.8702 16.2191 6.45027 17.0872 7.18153 17.8185C7.9128 18.5497 8.78093 19.1298 9.73637 19.5256C10.6918 19.9213 11.7158 20.125 12.75 20.125C14.8386 20.125 16.8416 19.2953 18.3185 17.8185C19.7953 16.3416 20.625 14.3386 20.625 12.25C20.625 10.1614 19.7953 8.15838 18.3185 6.68153C16.8416 5.20468 14.8386 4.375 12.75 4.375ZM3.125 12.25C3.1252 10.7043 3.49768 9.18134 4.21092 7.81001C4.92416 6.43868 5.95718 5.25931 7.22261 4.37164C8.48803 3.48397 9.94863 2.91413 11.4809 2.71031C13.0131 2.50649 14.5719 2.6747 16.0253 3.2007C17.4788 3.7267 18.7842 4.59501 19.8311 5.7322C20.8781 6.86939 21.6357 8.242 22.04 9.73392C22.4442 11.2258 22.4833 12.7932 22.1537 14.3034C21.8241 15.8135 21.1357 17.2221 20.1467 18.41L25.6183 23.8817C25.7043 23.9618 25.7733 24.0584 25.8211 24.1657C25.8689 24.273 25.8946 24.3889 25.8967 24.5064C25.8988 24.6239 25.8772 24.7406 25.8331 24.8495C25.7891 24.9585 25.7236 25.0575 25.6405 25.1405C25.5575 25.2236 25.4585 25.2891 25.3495 25.3331C25.2406 25.3772 25.1239 25.3988 25.0064 25.3967C24.8889 25.3946 24.773 25.3689 24.6657 25.3211C24.5584 25.2733 24.4618 25.2043 24.3817 25.1183L18.91 19.6467C17.5044 20.8174 15.7943 21.5634 13.98 21.7971C12.1658 22.0309 10.3224 21.7428 8.66598 20.9666C7.00954 20.1905 5.60858 18.9583 4.62724 17.4145C3.64589 15.8707 3.1248 14.0793 3.125 12.25Z" fill="white"/>
</g>
</svg>
