<svg width="28" height="28" viewBox="0 0 28 28" fill="none" xmlns="http://www.w3.org/2000/svg">
<path fill-rule="evenodd" clip-rule="evenodd" d="M18.9935 13.3817C19.1573 13.5458 19.2494 13.7681 19.2494 14C19.2494 14.2319 19.1573 14.4543 18.9935 14.6184L10.2435 23.3684C10.0776 23.5229 9.85822 23.6071 9.63154 23.6031C9.40485 23.5991 9.18857 23.5072 9.02825 23.3469C8.86794 23.1866 8.77611 22.9703 8.77211 22.7436C8.76811 22.517 8.85225 22.2976 9.00681 22.1317L17.1385 14L9.00681 5.86836C8.85225 5.70249 8.76811 5.4831 8.77211 5.25641C8.77611 5.02973 8.86794 4.81345 9.02825 4.65313C9.18857 4.49282 9.40485 4.40099 9.63154 4.39699C9.85822 4.39299 10.0776 4.47713 10.2435 4.63169L18.9935 13.3817Z" fill="white"/>
</svg>
