<svg width="24" height="24" viewBox="0 0 24 24" fill="none" xmlns="http://www.w3.org/2000/svg">
<path fill-rule="evenodd" clip-rule="evenodd" d="M12 2.25C6.615 2.25 2.25 6.615 2.25 12C2.25 17.385 6.615 21.75 12 21.75C17.385 21.75 21.75 17.385 21.75 12C21.75 6.615 17.385 2.25 12 2.25ZM6.262 6.072C5.04499 7.25031 4.2202 8.77469 3.89967 10.4381C3.57914 12.1014 3.77841 13.8231 4.47041 15.3693C5.16242 16.9155 6.3136 18.2112 7.76758 19.0803C9.22157 19.9495 10.9079 20.35 12.5974 20.2275C14.2869 20.105 15.8978 19.4653 17.2111 18.3954C18.5245 17.3256 19.4767 15.8774 19.9383 14.2475C20.4 12.6177 20.3488 10.8852 19.7916 9.28551C19.2344 7.6858 18.1983 6.29638 16.824 5.306C16.4858 5.84661 16.0365 6.30916 15.506 6.663L14.25 7.5L14.415 7.83C14.4909 7.98192 14.5171 8.15388 14.4899 8.32152C14.4626 8.48916 14.3833 8.64396 14.2631 8.764C14.143 8.88404 13.9881 8.96322 13.8204 8.99032C13.6528 9.01742 13.4808 8.99107 13.329 8.915L12.725 8.613C12.514 8.50745 12.2751 8.47094 12.0421 8.50863C11.8092 8.54632 11.594 8.65629 11.427 8.823L11.295 8.954C10.856 9.394 10.856 10.106 11.295 10.545L11.591 10.841C11.847 11.098 12.213 11.215 12.571 11.155L13.741 10.96C14.064 10.906 14.395 10.996 14.646 11.205L15.976 12.313C16.296 12.58 16.436 13.007 16.334 13.413C15.9514 14.9421 15.1606 16.3385 14.046 17.453L13.323 18.177C13.156 18.3437 12.9408 18.4537 12.7079 18.4914C12.4749 18.5291 12.236 18.4925 12.025 18.387L11.872 18.311C11.6851 18.2176 11.528 18.074 11.4181 17.8963C11.3083 17.7187 11.2501 17.5139 11.25 17.305V16.216C11.25 15.918 11.131 15.631 10.92 15.42L9.573 14.073C9.40629 13.906 9.29632 13.6908 9.25863 13.4579C9.22094 13.2249 9.25745 12.986 9.363 12.775L9.75 12L8.11 10.36C7.2255 9.47557 6.63951 8.33682 6.434 7.103L6.262 6.072Z" fill="white"/>
</svg>
