<svg width="24" height="24" viewBox="0 0 24 24" fill="none" xmlns="http://www.w3.org/2000/svg">
<path fill-rule="evenodd" clip-rule="evenodd" d="M7.5 3.75C7.10218 3.75 6.72064 3.90804 6.43934 4.18934C6.15804 4.47064 6 4.85218 6 5.25V18.75C6 19.1478 6.15804 19.5294 6.43934 19.8107C6.72064 20.092 7.10218 20.25 7.5 20.25H13.5C13.8978 20.25 14.2794 20.092 14.5607 19.8107C14.842 19.5294 15 19.1478 15 18.75V15C15 14.8011 15.079 14.6103 15.2197 14.4697C15.3603 14.329 15.5511 14.25 15.75 14.25C15.9489 14.25 16.1397 14.329 16.2803 14.4697C16.421 14.6103 16.5 14.8011 16.5 15V18.75C16.5 19.5456 16.1839 20.3087 15.6213 20.8713C15.0587 21.4339 14.2956 21.75 13.5 21.75H7.5C6.70435 21.75 5.94129 21.4339 5.37868 20.8713C4.81607 20.3087 4.5 19.5456 4.5 18.75V5.25C4.5 4.45435 4.81607 3.69129 5.37868 3.12868C5.94129 2.56607 6.70435 2.25 7.5 2.25H13.5C14.2956 2.25 15.0587 2.56607 15.6213 3.12868C16.1839 3.69129 16.5 4.45435 16.5 5.25V9C16.5 9.19891 16.421 9.38968 16.2803 9.53033C16.1397 9.67098 15.9489 9.75 15.75 9.75C15.5511 9.75 15.3603 9.67098 15.2197 9.53033C15.079 9.38968 15 9.19891 15 9V5.25C15 4.85218 14.842 4.47064 14.5607 4.18934C14.2794 3.90804 13.8978 3.75 13.5 3.75H7.5ZM12.53 8.47C12.6705 8.61063 12.7493 8.80125 12.7493 9C12.7493 9.19875 12.6705 9.38937 12.53 9.53L10.81 11.25H21.75C21.9489 11.25 22.1397 11.329 22.2803 11.4697C22.421 11.6103 22.5 11.8011 22.5 12C22.5 12.1989 22.421 12.3897 22.2803 12.5303C22.1397 12.671 21.9489 12.75 21.75 12.75H10.81L12.53 14.47C12.6037 14.5387 12.6628 14.6215 12.7038 14.7135C12.7448 14.8055 12.7668 14.9048 12.7686 15.0055C12.7704 15.1062 12.7518 15.2062 12.7141 15.2996C12.6764 15.393 12.6203 15.4778 12.549 15.549C12.4778 15.6203 12.393 15.6764 12.2996 15.7141C12.2062 15.7518 12.1062 15.7704 12.0055 15.7686C11.9048 15.7668 11.8055 15.7448 11.7135 15.7038C11.6215 15.6628 11.5387 15.6037 11.47 15.53L8.47 12.53C8.32955 12.3894 8.25066 12.1988 8.25066 12C8.25066 11.8012 8.32955 11.6106 8.47 11.47L11.47 8.47C11.6106 8.32955 11.8012 8.25066 12 8.25066C12.1988 8.25066 12.3894 8.32955 12.53 8.47Z" fill="white"/>
</svg>
